<svg width="238" height="75" viewBox="0 0 238 75" fill="none" xmlns="http://www.w3.org/2000/svg">
<path d="M48.1258 20.0738C41.995 13.7765 34.2895 11.4817 25.3211 11.9361C22.9861 12.0544 20.6356 12.0126 18.2955 11.9496C15.4119 11.8719 14.2453 13.1622 14.2591 15.5946C14.2847 20.1137 14.2662 24.6329 14.2659 29.1521C14.2649 42.5289 14.2684 55.9058 14.2538 69.2826C14.2527 70.2708 14.292 71.2983 14.0166 72.2393C13.3606 74.4811 10.7499 75.3107 8.79661 73.7871C6.12446 71.7027 3.53678 69.502 1.19566 67.1312C0.370419 66.2955 0.0563795 64.8134 0.0523404 63.625C-0.0146553 43.9214 -0.00611039 24.2177 0.0164546 4.51396C0.0200646 1.36138 1.66805 0.0128841 5.31446 0.00343784C8.77713 -0.00553205 12.2399 0.00774637 15.7025 0.000105717C26.2948 -0.0232709 35.2245 3.83225 43.2427 9.55247C46.9687 12.2106 49.7797 17.7817 49.6565 21.3248C49.11 20.8919 48.6855 20.5557 48.1258 20.0738Z" fill="#1DB0B9"/>
<path d="M59.1339 54.9884C58.865 55.3067 58.596 55.6249 57.9652 56.0423C57.1116 56.6931 56.6199 57.2447 56.1282 57.7964C55.8449 58.0852 55.5615 58.3739 54.9132 58.7575C53.393 59.6704 52.2377 60.4883 51.0825 61.3062C51.0825 61.3062 50.9229 61.4557 50.5875 61.4815C49.0968 62.0982 47.9413 62.689 46.7859 63.2799C46.5666 63.3873 46.3474 63.4947 45.6859 63.6111C41.885 64.4404 38.5263 65.2609 35.1676 66.0814C34.3496 66.0994 33.5317 66.1175 32.3961 65.8977C31.4888 64.2072 30.5919 62.7882 30.3848 61.2939C30.1057 59.2811 30.3581 57.2103 30.3825 55.1644C30.3825 55.1644 30.5262 54.9392 30.9086 54.8972C49.145 52.4137 56.9627 40.5031 55.9208 26.1943C55.8786 25.6147 55.4278 25.0586 55.1674 24.4915C55.094 24.2474 55.0206 24.0034 55.0625 23.4002C53.7756 19.4253 52.5981 15.7222 50.875 12.2313C50.0345 10.5286 48.1765 9.22151 46.779 7.73533C45.2666 6.52034 43.7543 5.30534 42.0901 3.79264C42.8938 3.11981 43.8493 2.74469 44.8049 2.36957C44.8049 2.36957 44.9059 2.34638 45.0363 2.48843C45.3639 2.67365 45.561 2.71682 45.7582 2.75999C45.9994 2.81086 46.2407 2.86174 46.7071 3.16406C48.7944 4.26899 50.6567 5.12248 52.5189 5.97597C52.5189 5.97597 52.7548 6.03869 52.8928 6.2904C53.6851 7.22677 54.2499 8.00346 55.0068 8.5824C68.7829 19.12 69.8272 40.9753 60.094 52.7748C59.5861 53.3906 59.4455 54.2451 59.1339 54.9884Z" fill="#1DB0B9"/>
<path d="M86.0856 52.7116C77.2513 50.0137 72.5937 43.5029 73.8457 35.9018C74.9605 29.1339 81.6394 23.6901 89.3232 23.4394C96.3415 23.2103 101.899 25.6755 105.199 31.2521C108.474 36.7885 107.943 42.3611 103.69 47.3326C99.3383 52.419 93.3756 54.1172 86.0856 52.7116ZM96.0579 44.061C96.6426 43.4444 97.3305 42.8829 97.7942 42.2014C99.7421 39.3387 99.337 35.6195 96.8813 33.1449C94.3328 30.577 90.4561 29.8189 86.9188 31.1967C83.571 32.5007 81.192 35.8574 81.643 38.9715C82.5021 44.9044 90.3057 48.3696 96.0579 44.061Z" fill="#1DB0B9"/>
<path d="M226.726 48.8701C225.921 47.5925 225.145 46.5243 224.547 45.3824C223.625 43.6209 222.261 42.9718 219.736 43.8459C219.736 45.8598 219.633 48.006 219.767 50.1403C219.882 51.9622 219.281 52.8516 217.051 52.666C215.454 52.5332 213.832 52.6402 211.952 52.6402C211.952 43.0495 211.952 33.7168 211.952 24.2206C217.475 24.2206 223.152 23.4856 228.474 24.3935C236.381 25.7425 239.111 34.7513 233.631 40.1259C232.087 41.6401 231.985 42.6653 233.126 44.2978C234.871 46.7966 236.364 49.4342 238 52.0705C231.899 53.6797 229.228 52.9072 226.726 48.8701ZM225.192 36.8298C227.115 36.4645 228.865 35.6644 228.671 33.7491C228.568 32.7317 227.475 31.1641 226.535 30.9717C224.487 30.5523 221.986 30.3514 220.211 31.0883C219.41 31.4211 219.672 34.237 219.949 35.8595C220.029 36.3241 221.828 36.6171 222.876 36.8678C223.438 37.0023 224.078 36.8799 225.192 36.8298Z" fill="#1DB0B9"/>
<path d="M200.347 30.4938C198.376 30.9668 195.384 29.1351 195.425 32.6442C195.442 34.1499 196.09 34.7513 197.794 34.7084C200.617 34.6373 203.444 34.6891 206.44 34.6891C206.44 36.9868 206.44 38.9377 206.44 41.2611C203.447 41.2611 200.631 41.3346 197.822 41.2359C195.87 41.1673 195.394 41.9675 195.423 43.523C195.453 45.0708 195.673 46.155 197.887 46.0835C201.124 45.979 204.368 46.0567 207.393 46.0567C207.717 46.4894 207.903 46.6266 207.921 46.7792C208.6 52.6311 208.598 52.6331 202.115 52.6375C197.344 52.6407 192.573 52.6381 187.557 52.6381C187.557 43.0087 187.557 33.6543 187.557 24.1018C194.182 24.1018 200.742 24.1018 207.535 24.1018C207.535 26.1189 207.535 28.0632 207.535 30.4939C205.214 30.4939 202.926 30.4939 200.347 30.4938Z" fill="#1DB0B9"/>
<path d="M156.427 37.3873C160.163 39.7817 161.29 42.9221 160.296 46.5797C159.333 50.1234 156.322 51.8939 152.541 52.7677C146.53 54.157 140.309 52.3774 137.184 48.4576C136.005 46.9778 135.517 45.7462 137.959 44.9011C138.707 44.6423 139.405 44.2224 140.05 43.7877C141.519 42.798 142.608 42.7573 143.825 44.2648C145.353 46.1562 147.761 46.5194 150.147 45.9528C151.032 45.7429 152.016 44.7954 152.277 44.0074C152.424 43.5639 151.328 42.5018 150.547 42.1717C148.907 41.4774 147.099 41.1004 145.373 40.5609C138.694 38.4738 135.967 34.6127 137.558 29.5254C138.977 24.9906 144.719 22.4235 150.95 23.5382C154.834 24.2329 157.654 26.2481 159.533 29.8852C157.526 30.9517 155.477 32.041 153.66 33.007C151.852 32.0653 150.411 30.972 148.76 30.588C147.829 30.3715 146.553 31.3233 145.432 31.7488C146.137 32.5111 146.67 33.5798 147.577 33.9786C150.39 35.2149 153.345 36.1966 156.427 37.3873Z" fill="#1DB0B9"/>
<path d="M117.856 51.7453C115.386 52.2708 112.997 52.5734 110.277 52.9179C110.277 43.0111 110.277 33.6725 110.277 24.1184C115.296 24.1184 120.293 23.6687 125.138 24.2377C130.612 24.8804 134.138 29.7784 133.544 34.6466C132.952 39.4957 128.591 43.2154 123.25 43.4267C118.018 43.6338 118.022 43.6338 118.01 48.2743C118.007 49.3571 117.962 50.4398 117.856 51.7453ZM117.945 34.8941C118.486 36.9068 120.461 37.672 123.24 36.4878C124.366 36.0083 125.646 34.5783 125.637 33.5898C125.628 32.6174 124.274 31.1845 123.148 30.808C121.699 30.3235 119.889 30.6901 117.941 30.6901C117.941 32.1119 117.941 33.2655 117.945 34.8941Z" fill="#1DB0B9"/>
<path d="M160.994 26.7568C161.072 25.7324 161.15 24.945 161.253 23.9153C168.857 23.9153 176.27 23.877 183.68 23.988C184.274 23.9969 185.153 24.9602 185.357 25.6132C185.644 26.5356 185.376 27.5843 185.433 28.5751C185.511 29.9453 184.876 30.5642 183.293 30.5116C181.481 30.4515 179.665 30.4977 177.387 30.4977C177.387 37.9128 177.387 45.0725 177.387 51.9479C176.762 52.3268 176.608 52.4974 176.437 52.5125C169.219 53.1484 169.215 53.1467 169.206 46.8482C169.201 42.7839 169.208 38.7196 169.21 34.6552C169.212 30.5104 169.212 30.5099 164.683 30.5009C163.587 30.4987 162.49 30.5006 161.223 30.5006C161.134 29.1329 161.064 28.0633 160.994 26.7568Z" fill="#1DB0B9"/>
<path d="M45.0365 2.41361C44.2133 2.90567 43.2578 3.28079 42.3144 3.81386C40.852 3.27282 39.3774 2.57383 37.9028 1.87483C37.9938 1.61162 38.0848 1.34841 38.1758 1.08521C40.4186 1.48903 42.6614 1.89285 45.0365 2.41361Z" fill="#1DB0B9"/>
</svg>
