<svg width="32" height="31" viewBox="0 0 32 31" fill="none" xmlns="http://www.w3.org/2000/svg">
<g clip-path="url(#clip0_29_135)">
<path d="M29.5 0H2.5C1.11875 0 0 1.08379 0 2.42188V28.5781C0 29.9162 1.11875 31 2.5 31H29.5C30.8813 31 32 29.9162 32 28.5781V2.42188C32 1.08379 30.8813 0 29.5 0ZM30.125 28.5781C30.125 28.9111 29.8438 29.1836 29.5 29.1836H2.5C2.15625 29.1836 1.875 28.9111 1.875 28.5781V2.42188C1.875 2.08887 2.15625 1.81641 2.5 1.81641H29.5C29.8438 1.81641 30.125 2.08887 30.125 2.42188V28.5781Z" fill="#1DB0B9"/>
<path d="M18.1125 10.2142C18.7562 10.2142 19.4437 10.408 19.4437 10.408L19.8562 8.03452C19.8562 8.03452 18.9812 7.7439 16.8937 7.7439C15.6125 7.7439 14.8687 8.21616 14.325 8.91245C13.8125 9.57241 13.7937 10.632 13.7937 11.3162V12.8722H12.1375V15.1912H13.7937V23.2439H16.8937V15.1912H19.35L19.5312 12.8722H16.8937V11.0619C16.8937 10.4382 17.4687 10.2142 18.1125 10.2142Z" fill="#1DB0B9"/>
</g>
<defs>
<clipPath id="clip0_29_135">
<rect width="32" height="31" fill="white"/>
</clipPath>
</defs>
</svg>
