<svg width="34" height="34" viewBox="0 0 34 34" fill="none" xmlns="http://www.w3.org/2000/svg">
<g clip-path="url(#clip0_95_18)">
<path fill-rule="evenodd" clip-rule="evenodd" d="M7.31515 17C7.31515 15.9203 7.49447 14.8852 7.81453 13.9143L2.21245 9.63632C1.12063 11.8531 0.505493 14.351 0.505493 17C0.505493 19.6467 1.11988 22.143 2.21018 24.3583L7.80923 20.0721C7.4922 19.1057 7.31515 18.0744 7.31515 17Z" fill="#FBBC05"/>
<path fill-rule="evenodd" clip-rule="evenodd" d="M17.1513 7.17774C19.4969 7.17774 21.6154 8.00886 23.28 9.36886L28.1225 4.5333C25.1716 1.96441 21.3885 0.377747 17.1513 0.377747C10.5732 0.377747 4.91967 4.13966 2.21245 9.63632L7.81453 13.9143C9.10534 9.99597 12.7848 7.17774 17.1513 7.17774Z" fill="#EB4335"/>
<path fill-rule="evenodd" clip-rule="evenodd" d="M17.1513 26.8222C12.7848 26.8222 9.10533 24.004 7.81452 20.0857L2.21245 24.3629C4.91966 29.8603 10.5732 33.6222 17.1513 33.6222C21.2114 33.6222 25.0876 32.1806 27.9968 29.4795L22.6792 25.3685C21.1789 26.3137 19.2896 26.8222 17.1513 26.8222Z" fill="#34A853"/>
<path fill-rule="evenodd" clip-rule="evenodd" d="M33.0405 17C33.0405 16.0178 32.8892 14.96 32.6622 13.9778H17.1513V20.4H26.0795C25.6331 22.5896 24.418 24.273 22.6792 25.3685L27.9968 29.4795C31.0529 26.6431 33.0405 22.4181 33.0405 17Z" fill="#4285F4"/>
</g>
<defs>
<clipPath id="clip0_95_18">
<rect width="34" height="34" fill="white"/>
</clipPath>
</defs>
</svg>
