<svg width="75" height="77" viewBox="0 0 75 77" fill="none" xmlns="http://www.w3.org/2000/svg">
<g clip-path="url(#clip0_12_128)">
<path d="M37.4071 20.5133C36.3231 21.0413 35.2491 21.7731 34.2529 22.7766C29.2591 27.8022 24.7195 32.3696 24.7195 32.3696L24.7214 32.3726C24.6943 32.4 24.6671 32.4224 24.6398 32.4507C23.3473 33.7523 23.296 35.8271 24.4897 37.1885C24.537 37.2432 24.5875 37.297 24.6398 37.3486C25.9818 38.7007 28.1607 38.7039 29.5078 37.3486L34.7515 32.0727C35.6562 32.4062 36.5457 32.6007 37.3991 32.698C38.5617 32.8277 39.6538 32.7791 40.625 32.6413C42.9924 32.3038 42.7446 32.4021 44.1177 31.948C45.4878 31.4958 47.0272 30.5693 47.0272 30.5693L47.9591 31.506C48.0618 31.6063 50.4375 34.0004 51.6494 35.2178C51.864 35.4347 52.0462 35.6131 52.1682 35.7409C52.3083 35.8879 52.4644 35.9943 52.5611 36.1362L58.6077 42.2201C60.3505 40.2525 62.3413 37.3222 62.0955 33.958L46.9868 18.7585C46.9868 18.7585 41.7571 18.3825 37.4071 20.5133Z" fill="#1DB0B9"/>
<path d="M38.2493 57.8483C36.9113 56.5002 34.7394 56.5002 33.4005 57.8483L32.4053 58.8497C33.7411 57.5038 33.74 55.3233 32.4022 53.9762C31.0633 52.6312 28.8943 52.6312 27.5555 53.9773C28.8943 52.6312 28.8943 50.4489 27.5555 49.1008C26.2176 47.7525 24.0476 47.7547 22.7087 49.1008C24.0476 47.7547 24.0476 45.5713 22.7087 44.2231C21.3708 42.8771 19.2009 42.8771 17.8619 44.2251L14.8648 47.2396C13.5259 48.5877 13.5259 50.769 14.8648 52.1171C16.2026 53.4633 18.3718 53.4633 19.7105 52.1171C18.3716 53.4633 18.3716 55.6466 19.7105 56.9937C21.0504 58.3397 23.2194 58.3397 24.5583 56.9937C23.2194 58.3397 23.2194 60.5222 24.5583 61.8703C25.8971 63.2164 28.0661 63.2164 29.4051 61.8703L30.4015 60.8668C29.0657 62.2149 29.0666 64.3952 30.4044 65.7424C31.7433 67.0883 33.9123 67.0883 35.2513 65.7424L38.2494 62.7257C39.5871 61.3767 39.5871 59.1944 38.2493 57.8483Z" fill="#1DB0B9"/>
<path d="M74.4122 26.0011L56.769 8.24742C55.9852 7.46082 54.7179 7.46082 53.9361 8.24742L48.2773 13.9409C47.4955 14.7275 47.4955 16.0027 48.2773 16.7903L65.9225 34.5429C66.7033 35.3315 67.9727 35.3315 68.7535 34.5429L74.4122 28.8483C75.196 28.0639 75.196 26.7887 74.4122 26.0011ZM69.3831 29.9381C68.5408 30.7835 67.1788 30.7835 66.3395 29.9381C65.4995 29.0916 65.4995 27.7212 66.3395 26.8758C67.1788 26.0304 68.5408 26.0304 69.3831 26.8758C70.2233 27.7212 70.2223 29.0916 69.3831 29.9381Z" fill="#1DB0B9"/>
<path d="M26.7212 14.4438L21.0634 8.75035C20.2818 7.96375 19.0134 7.96375 18.2316 8.75035L0.586377 26.5039C-0.195411 27.2884 -0.195411 28.5657 0.586377 29.3512L6.24521 35.0468C7.02598 35.8325 8.29629 35.8325 9.07603 35.0468L26.7212 17.2931C27.5041 16.5065 27.5041 15.2313 26.7212 14.4438ZM8.65986 30.4408C7.81963 31.2852 6.45674 31.2852 5.61636 30.4408C4.77627 29.5945 4.77627 28.224 5.61636 27.3786C6.45659 26.5334 7.81963 26.5334 8.65986 27.3786C9.5001 28.224 9.5001 29.5944 8.65986 30.4408Z" fill="#1DB0B9"/>
<path d="M58.2316 45.8286L57.1377 44.7258L46.5163 34.0391L45.801 34.3583L45.0223 34.6412L44.966 34.6584C44.8289 34.702 43.5475 35.0963 41.0209 35.4561C39.685 35.6437 38.3613 35.667 37.0799 35.52C36.5732 35.4633 36.0694 35.38 35.5717 35.2707L31.5057 39.3597C29.0626 41.8178 25.0844 41.8178 22.6414 39.3597C22.5557 39.2726 22.473 39.1843 22.3966 39.0972L22.3704 39.0677C20.828 37.3081 20.4362 34.8997 21.1616 32.8096L22.725 30.3617L22.7221 30.3588L32.2554 20.7678C32.6432 20.3786 33.0502 20.0157 33.4733 19.6731C30.5024 19.0862 28.01 19.2595 28.01 19.2595L12.9042 34.4608C12.7008 37.2593 14.6109 40.3265 15.9699 42.1177C18.415 39.765 22.3037 39.7955 24.7063 42.2141C25.6009 43.1132 26.1642 44.221 26.4018 45.3826C27.5582 45.6239 28.6585 46.1895 29.5531 47.0896C30.4477 47.9907 31.0109 49.0986 31.2486 50.2612C32.4041 50.5004 33.5062 51.0659 34.4 51.9661C34.9973 52.5672 35.4476 53.2606 35.7508 54.0025C37.3768 53.9823 39.0089 54.5944 40.2461 55.8382C42.6851 58.2901 42.6841 62.2838 40.2461 64.7348L39.2487 65.7403L39.7484 66.2431C41.0884 67.5913 43.2573 67.5913 44.5963 66.2431C45.9352 64.8969 45.9352 62.7137 44.5963 61.3665L45.5936 62.3731C46.9334 63.7192 49.1014 63.7192 50.4403 62.3731C51.7791 61.025 51.7802 58.8427 50.4403 57.4945C51.7802 58.8427 53.9481 58.8427 55.287 57.4945C56.625 56.1495 56.6279 53.9661 55.287 52.6179C56.6279 53.9661 58.7959 53.9661 60.1339 52.6179C61.4738 51.2719 61.4738 49.0884 60.1339 47.7424L58.2316 45.8286Z" fill="#1DB0B9"/>
</g>
<defs>
<clipPath id="clip0_12_128">
<rect width="75" height="75.4611" fill="white" transform="translate(0 0.731445)"/>
</clipPath>
</defs>
</svg>
