<svg width="34" height="34" viewBox="0 0 34 34" fill="none" xmlns="http://www.w3.org/2000/svg">
<path fill-rule="evenodd" clip-rule="evenodd" d="M20.7227 10.6484V11.9757C22.0057 11.1802 23.4869 10.7165 25.7374 10.7165C33.0623 10.7165 34 16.1811 34 20.9416V33.9256L25.5307 34V21.5818C25.5307 19.4972 24.7827 19.1016 23.3995 19.1016C22.0846 19.1016 21.2683 19.5164 21.2683 21.5818V34L12.6882 33.9256V10.6484L20.7227 10.6484ZM8.52472 10.6344V33.9902H0V10.6344H8.52472V10.6344ZM6.39354 12.7615H2.13118V31.8631H6.39354V12.7615V12.7615ZM18.5916 12.7755H14.8194V31.8176L19.1372 31.8559V21.5818C19.1372 17.5722 21.8075 16.9745 23.3995 16.9745C25.3432 16.9745 27.6619 17.7743 27.6619 21.5818V31.8559L31.8688 31.8176V20.9416C31.8688 15.0388 30.2086 12.8436 25.7374 12.8436C23.05 12.8436 21.8864 13.6391 20.7462 14.5964L20.45 14.8473H18.5916V12.7755ZM4.26236 0C6.61306 0 8.52472 1.90804 8.52472 4.25425C8.52472 6.60048 6.61306 8.5085 4.26236 8.5085C1.91167 8.5085 0 6.60048 0 4.25425C0 1.90804 1.91167 0 4.26236 0ZM4.26236 2.12713C3.08808 2.12713 2.13118 3.08221 2.13118 4.25425C2.13118 5.42629 3.08808 6.38137 4.26236 6.38137C5.43664 6.38137 6.39354 5.42629 6.39354 4.25425C6.39354 3.08221 5.43664 2.12713 4.26236 2.12713Z" fill="#1DB0B9"/>
</svg>
