<svg width="157" height="40" viewBox="0 0 157 40" fill="none" xmlns="http://www.w3.org/2000/svg">
<path d="M25.6949 10.7176C22.4216 7.35542 18.3075 6.13019 13.5192 6.37282C12.2725 6.43599 11.0176 6.41366 9.76815 6.37999C8.22855 6.33851 7.60571 7.02743 7.61308 8.32611C7.62676 10.7389 7.61686 13.1518 7.61669 15.5646C7.61619 22.7066 7.61804 29.8487 7.61025 36.9907C7.60968 37.5183 7.63064 38.0669 7.48362 38.5693C7.13336 39.7662 5.73951 40.2092 4.6966 39.3957C3.26991 38.2828 1.88832 37.1078 0.638373 35.842C0.197771 35.3959 0.0301016 34.6045 0.0279451 33.97C-0.00782461 23.4501 -0.0032624 12.9301 0.00878529 2.41005C0.0107127 0.726854 0.890587 0.00687895 2.83744 0.0018355C4.6862 -0.00295362 6.53499 0.00413587 8.38375 5.64432e-05C14.0391 -0.0124246 18.8067 2.04607 23.0877 5.10016C25.0771 6.51937 26.5779 9.4938 26.5121 11.3855C26.2203 11.1544 25.9937 10.9749 25.6949 10.7176Z" fill="black"/>
<path d="M31.5722 29.3589C31.4286 29.5288 31.2849 29.6987 30.9481 29.9215C30.4924 30.269 30.2299 30.5635 29.9674 30.8581C29.8161 31.0122 29.6648 31.1664 29.3187 31.3712C28.507 31.8586 27.8902 32.2953 27.2734 32.732C27.2734 32.732 27.1882 32.8118 27.0092 32.8256C26.2132 33.1548 25.5963 33.4703 24.9794 33.7857C24.8624 33.8431 24.7453 33.9005 24.3921 33.9626C22.3628 34.4054 20.5695 34.8434 18.7763 35.2815C18.3396 35.2911 17.9029 35.3008 17.2966 35.1834C16.8122 34.2808 16.3333 33.5232 16.2227 32.7254C16.0737 31.6508 16.2085 30.5451 16.2215 29.4528C16.2215 29.4528 16.2982 29.3326 16.5024 29.3102C26.239 27.9842 30.4129 21.625 29.8566 13.9854C29.8341 13.676 29.5934 13.379 29.4544 13.0762C29.4152 12.9459 29.376 12.8156 29.3984 12.4936C28.7113 10.3713 28.0826 8.39425 27.1626 6.53042C26.7139 5.62132 25.7219 4.92344 24.9757 4.12996C24.1683 3.48126 23.3608 2.83256 22.4723 2.02491C22.9014 1.66568 23.4116 1.4654 23.9217 1.26512C23.9217 1.26512 23.9757 1.25274 24.0453 1.32859C24.2202 1.42747 24.3254 1.45052 24.4307 1.47357C24.5595 1.50074 24.6883 1.5279 24.9374 1.68931C26.0518 2.27924 27.0461 2.73493 28.0403 3.19062C28.0403 3.19062 28.1663 3.2241 28.24 3.3585C28.6629 3.85843 28.9645 4.27311 29.3686 4.58222C36.7238 10.2084 37.2814 21.8771 32.0848 28.177C31.8136 28.5058 31.7385 28.962 31.5722 29.3589Z" fill="black"/>
<path d="M48.3029 36.3681C41.9819 34.4377 38.6492 29.7791 39.5451 24.3404C40.3427 19.4979 45.1216 15.6028 50.6195 15.4234C55.6412 15.2595 59.6179 17.0234 61.9786 21.0135C64.3222 24.9749 63.9421 28.9622 60.8989 32.5194C57.7854 36.1587 53.519 37.3738 48.3029 36.3681ZM55.4382 30.1785C55.8566 29.7373 56.3488 29.3355 56.6806 28.8479C58.0744 26.7996 57.7845 24.1385 56.0274 22.3679C54.2039 20.5305 51.43 19.988 48.8991 20.9739C46.5037 21.9069 44.8015 24.3086 45.1242 26.5369C45.7389 30.7819 51.3225 33.2613 55.4382 30.1785Z" fill="black"/>
<path d="M148.933 33.6194C148.357 32.7053 147.802 31.941 147.374 31.124C146.714 29.8636 145.738 29.3991 143.932 30.0246C143.932 31.4656 143.858 33.0011 143.954 34.5283C144.036 35.8319 143.607 36.4683 142.011 36.3355C140.868 36.2405 139.708 36.317 138.362 36.317C138.362 29.4547 138.362 22.7771 138.362 15.9823C142.314 15.9823 146.376 15.4565 150.184 16.1061C155.842 17.0713 157.795 23.5173 153.874 27.3628C152.769 28.4462 152.696 29.1798 153.512 30.3479C154.761 32.1358 155.83 34.023 157 35.9094C152.635 37.0608 150.724 36.508 148.933 33.6194ZM147.836 25.0045C149.212 24.7431 150.464 24.1706 150.325 22.8001C150.251 22.0722 149.469 20.9505 148.797 20.8129C147.331 20.5128 145.542 20.3691 144.272 20.8963C143.698 21.1345 143.886 23.1493 144.085 24.3102C144.141 24.6426 145.429 24.8522 146.178 25.0316C146.58 25.1278 147.038 25.0403 147.836 25.0045Z" fill="black"/>
<path d="M130.059 20.4709C128.649 20.8093 126.508 19.4987 126.537 22.0095C126.549 23.0869 127.013 23.5172 128.232 23.4865C130.252 23.4356 132.275 23.4727 134.419 23.4727C134.419 25.1167 134.419 26.5126 134.419 28.175C132.277 28.175 130.262 28.2276 128.252 28.157C126.856 28.1079 126.515 28.6805 126.536 29.7935C126.557 30.9009 126.714 31.6767 128.299 31.6256C130.615 31.5508 132.936 31.6063 135.101 31.6063C135.332 31.9159 135.466 32.0141 135.478 32.1233C135.964 36.3104 135.962 36.3119 131.324 36.315C127.91 36.3173 124.496 36.3155 120.907 36.3155C120.907 29.4255 120.907 22.7323 120.907 15.8973C125.648 15.8973 130.342 15.8973 135.202 15.8973C135.202 17.3406 135.202 18.7318 135.202 20.471C133.541 20.471 131.904 20.471 130.059 20.4709Z" fill="black"/>
<path d="M98.6331 25.4033C101.306 27.1166 102.112 29.3636 101.401 31.9806C100.712 34.5162 98.558 35.783 95.8529 36.4082C91.5518 37.4023 87.1005 36.1289 84.8645 33.3243C84.0204 32.2655 83.6717 31.3842 85.4191 30.7795C85.9541 30.5944 86.4536 30.2939 86.9152 29.9829C87.9663 29.2747 88.745 29.2456 89.6162 30.3243C90.7092 31.6776 92.4325 31.9374 94.1398 31.5321C94.7724 31.3819 95.4771 30.7039 95.6638 30.1401C95.7689 29.8227 94.9842 29.0628 94.4261 28.8266C93.2525 28.3299 91.9587 28.0601 90.7235 27.6741C85.945 26.1807 83.9933 23.418 85.1322 19.778C86.1474 16.5333 90.256 14.6965 94.7144 15.4941C97.493 15.9912 99.5107 17.433 100.855 20.0355C99.4197 20.7985 97.9534 21.578 96.6533 22.2691C95.3597 21.5953 94.3283 20.8131 93.147 20.5383C92.4808 20.3834 91.5678 21.0644 90.766 21.3689C91.2701 21.9143 91.6517 22.679 92.3009 22.9643C94.3135 23.8489 96.4278 24.5513 98.6331 25.4033Z" fill="black"/>
<path d="M71.0349 35.6768C69.2677 36.0528 67.5584 36.2693 65.6121 36.5158C65.6121 29.4274 65.6121 22.7454 65.6121 15.9094C69.2029 15.9094 72.7784 15.5876 76.2453 15.9947C80.1619 16.4546 82.6847 19.9592 82.2597 23.4424C81.8363 26.912 78.7161 29.5735 74.8947 29.7247C71.1505 29.8729 71.1537 29.8729 71.1447 33.1932C71.1426 33.968 71.1109 34.7427 71.0349 35.6768ZM71.0985 23.6195C71.4858 25.0596 72.8986 25.6071 74.8873 24.7598C75.6925 24.4168 76.6087 23.3936 76.6021 22.6863C76.5957 21.9905 75.6274 20.9652 74.8217 20.6958C73.7849 20.3492 72.4896 20.6115 71.0954 20.6115C71.0954 21.6288 71.0954 22.4542 71.0985 23.6195Z" fill="black"/>
<path d="M101.901 17.797C101.957 17.064 102.013 16.5005 102.086 15.7638C107.527 15.7638 112.831 15.7364 118.134 15.8158C118.558 15.8222 119.187 16.5115 119.333 16.9787C119.538 17.6386 119.347 18.389 119.387 19.098C119.444 20.0784 118.989 20.5212 117.856 20.4836C116.56 20.4406 115.261 20.4736 113.631 20.4736C113.631 25.7792 113.631 30.9021 113.631 35.8216C113.183 36.0926 113.073 36.2147 112.951 36.2255C107.786 36.6805 107.784 36.6793 107.777 32.1727C107.773 29.2646 107.778 26.3565 107.779 23.4484C107.781 20.4827 107.781 20.4824 104.541 20.4759C103.756 20.4743 102.971 20.4757 102.065 20.4757C102.001 19.497 101.952 18.7318 101.901 17.797Z" fill="black"/>
</svg>
