<svg width="59" height="61" viewBox="0 0 59 61" fill="none" xmlns="http://www.w3.org/2000/svg">
<path d="M13.8281 60.3482H45.1719V7.80078H13.8281V60.3482ZM17.5156 16.9463C20.2182 16.6612 22.3897 14.487 22.8381 11.6931H36.1656C36.6122 14.487 38.7818 16.6612 41.4844 16.9463V28.2511C39.1365 24.6 34.6567 22.1312 29.5 22.1312C24.3451 22.1312 19.8635 24.5981 17.5156 28.2492V16.9463ZM33.3334 32.2974C33.0507 31.923 32.6798 31.7368 32.2224 31.7368C31.8083 31.7368 31.4949 31.8679 31.2736 32.1358C31.0521 32.402 30.908 32.8524 30.8486 33.4853L30.7045 35.2605C30.5929 36.5795 30.2616 37.5754 29.7088 38.2501C29.1579 38.9286 28.3512 39.2631 27.2943 39.2631C26.6587 39.2631 26.1077 39.13 25.636 38.864C25.157 38.5978 24.7627 38.2273 24.4386 37.7635C24.1127 37.2941 23.8732 36.7372 23.7129 36.0891C23.6463 35.804 23.5995 35.5056 23.5616 35.2034H21.7682V32.9455H23.5237C23.5759 32.3012 23.6713 31.6873 23.8226 31.1095C24.0513 30.2257 24.975 29.0683 24.975 29.0683C25.0307 28.9694 25.1263 28.9048 25.2343 28.8896C25.3405 28.8781 25.4522 28.9162 25.5259 28.996L26.5991 30.1288C26.7125 30.2467 26.7341 30.4367 26.6496 30.585C26.6496 30.585 25.9527 31.4327 25.7871 32.075C25.6233 32.7136 25.5387 33.3503 25.5387 33.9871C25.5387 34.7872 25.6719 35.4505 25.942 35.9751C26.2121 36.5015 26.628 36.762 27.1988 36.762C27.6093 36.762 27.9315 36.6327 28.1711 36.3742C28.407 36.1157 28.5546 35.6785 28.6231 35.0609L28.7869 33.0329C28.8967 31.8355 29.2101 30.908 29.7322 30.26C30.2543 29.6081 31.0448 29.2831 32.1035 29.2831C32.6869 29.2831 33.2072 29.4085 33.6664 29.6575C34.1238 29.9084 34.5109 30.2485 34.8277 30.6839C35.1428 31.1173 35.3787 31.6228 35.539 32.2006C35.602 32.4401 35.6488 32.6909 35.6884 32.9456H37.2297V35.2035H35.7154C35.6686 35.7319 35.5876 36.2318 35.467 36.6974C35.2599 37.4918 34.6459 38.3243 34.6459 38.3243C34.5954 38.4269 34.5 38.4992 34.3885 38.5182C34.2787 38.5334 34.167 38.4953 34.0878 38.4137L33.0669 37.3511C32.9588 37.2409 32.9336 37.0659 33.002 36.9216C33.002 36.9216 33.4251 36.2924 33.5602 35.7488C33.6952 35.2072 33.76 34.637 33.76 34.0364C33.7601 33.2535 33.6215 32.6718 33.3334 32.2974ZM17.5156 39.8997C19.8635 43.5508 24.3451 46.0177 29.5 46.0177C34.6567 46.0177 39.1365 43.5508 41.4844 39.8978V51.1987C38.7818 51.4838 36.6122 53.6618 36.1656 56.4557H22.8362C22.3897 53.6618 20.2182 51.4838 17.5156 51.1987V39.8997Z" fill="#1DB0B9"/>
<path d="M49.7812 0H9.21875C4.12677 0 0 4.35621 0 9.73101C0 15.104 4.12689 19.462 9.21875 19.462H11.9844V13.6234C9.9498 13.6234 8.29688 11.8768 8.29688 9.73101C8.29688 7.58338 9.9498 5.83861 11.9844 5.83861H47.0156C49.0502 5.83861 50.7031 7.58338 50.7031 9.73101C50.7031 11.8768 49.0502 13.6234 47.0156 13.6234V19.462H49.7812C54.8732 19.462 59 15.104 59 9.73101C59 4.35609 54.8732 0 49.7812 0Z" fill="#1DB0B9"/>
<path d="M29.5 19.826C30.3751 19.826 31.0845 19.0772 31.0845 18.1535C31.0845 17.2298 30.3751 16.481 29.5 16.481C28.6249 16.481 27.9155 17.2298 27.9155 18.1535C27.9155 19.0772 28.6249 19.826 29.5 19.826Z" fill="#1DB0B9"/>
<path d="M29.5 51.6639C30.3751 51.6639 31.0845 50.9151 31.0845 49.9914C31.0845 49.0677 30.3751 48.3188 29.5 48.3188C28.6249 48.3188 27.9155 49.0677 27.9155 49.9914C27.9155 50.9151 28.6249 51.6639 29.5 51.6639Z" fill="#1DB0B9"/>
</svg>
