<svg width="75" height="77" viewBox="0 0 75 77" fill="none" xmlns="http://www.w3.org/2000/svg">
<g clip-path="url(#clip0_9_69)">
<path d="M22 55.1654V77.9924L34.5 71.704L47 77.9924V55.1654C52.6625 51.188 56.375 44.593 56.375 37.1176C56.375 24.9621 46.5812 15.1082 34.5 15.1082C22.4187 15.1082 12.625 24.9621 12.625 37.1176C12.625 44.593 16.3375 51.188 22 55.1654ZM40.75 67.8177L37.2953 66.0805L34.5 64.6735L31.7047 66.079L28.25 67.8177V58.2043C30.2313 58.797 32.3266 59.1271 34.5 59.1271C36.6734 59.1271 38.7687 58.797 40.75 58.2043V67.8177ZM34.5 21.3966C43.1156 21.3966 50.125 28.449 50.125 37.1176C50.125 45.7862 43.1156 52.8387 34.5 52.8387C25.8844 52.8387 18.875 45.7862 18.875 37.1176C18.875 28.449 25.8844 21.3966 34.5 21.3966Z" fill="#1DB0B9"/>
<path d="M34.5 46.5503C39.6781 46.5503 43.875 42.3276 43.875 37.1177C43.875 31.9077 39.6781 27.6851 34.5 27.6851C29.3219 27.6851 25.125 31.9077 25.125 37.1177C25.125 42.3276 29.3219 46.5503 34.5 46.5503ZM34.5 33.9735C36.2234 33.9735 37.625 35.3837 37.625 37.1177C37.625 38.8517 36.2234 40.2619 34.5 40.2619C32.7766 40.2619 31.375 38.8517 31.375 37.1177C31.375 35.3837 32.7766 33.9735 34.5 33.9735Z" fill="#1DB0B9"/>
</g>
<defs>
<clipPath id="clip0_9_69">
<rect width="75" height="75.4611" fill="white" transform="translate(0 0.770508)"/>
</clipPath>
</defs>
</svg>
