<svg width="59" height="61" viewBox="0 0 59 61" fill="none" xmlns="http://www.w3.org/2000/svg">
<path d="M24.9392 51.5812C29.2268 51.5857 33.4423 50.4397 37.1739 48.2551L47.5233 58.9627C48.7841 60.2672 50.4941 61 52.2771 61C54.0601 61 55.7701 60.2672 57.0309 58.9627C58.2917 57.6583 59 55.8891 59 54.0444C59 52.1996 58.2917 50.4304 57.0309 49.126L46.6722 38.4087C49.3501 33.4686 50.3818 27.7538 49.6081 22.1467C48.8343 16.5396 46.2981 11.3518 42.391 7.38446C38.4838 3.41707 33.4231 0.890637 27.9901 0.195192C22.557 -0.500253 17.0537 0.673966 12.3299 3.53657C7.60605 6.39917 3.92432 10.791 1.85309 16.0339C-0.218134 21.2769 -0.563672 27.0795 0.869823 32.5459C2.30332 38.0123 5.43613 42.8384 9.7846 46.2793C14.1331 49.7202 19.4554 51.5845 24.9299 51.5844L24.9392 51.5812ZM11.6888 12.0509C14.7549 8.88015 18.7887 6.90733 23.1031 6.46859C27.4174 6.02985 31.7453 7.15234 35.3494 9.64482C38.9536 12.1373 41.6109 15.8456 42.8688 20.1378C44.1266 24.4301 43.9071 29.0408 42.2477 33.1844C40.5883 37.328 37.5916 40.7481 33.7682 42.8621C29.9448 44.9761 25.5312 45.6531 21.2794 44.7779C17.0276 43.9027 13.2007 41.5293 10.4505 38.0621C7.70044 34.5949 6.19732 30.2485 6.19729 25.7633C6.18959 23.2153 6.67106 20.6912 7.61375 18.3373C8.55644 15.9834 9.94157 13.8466 11.6888 12.0509ZM9.51455 25.7633C9.51201 24.9048 9.83667 24.0799 10.4181 23.4675C10.9996 22.8551 11.791 22.5045 12.6206 22.4919C13.0258 22.4855 13.4281 22.5624 13.8043 22.7182C14.1805 22.874 14.523 23.1056 14.8119 23.3995C15.1009 23.6934 15.3306 24.0437 15.4876 24.4302C15.6446 24.8167 15.7259 25.2316 15.7267 25.6508V25.7633C15.7291 28.2907 16.701 30.7137 18.429 32.5002C20.1569 34.2867 22.4995 35.2907 24.9423 35.2915C25.7661 35.2915 26.5561 35.6301 27.1386 36.2328C27.7211 36.8354 28.0483 37.6528 28.0483 38.5051C28.0483 39.3574 27.7211 40.1748 27.1386 40.7774C26.5561 41.3801 25.7661 41.7187 24.9423 41.7187C20.8535 41.7136 16.9335 40.031 14.042 37.04C11.1504 34.049 9.5203 29.9936 9.51455 25.7633Z" fill="#1DB0B9"/>
</svg>
