<svg width="80" height="82" viewBox="0 0 80 82" fill="none" xmlns="http://www.w3.org/2000/svg">
<path d="M37.6433 11.8454C38.2684 11.2166 39.1161 10.8634 40 10.8634C40.8839 10.8634 41.7316 11.2166 42.3567 11.8454L55.69 25.2607C56.2972 25.8932 56.6332 26.7404 56.6256 27.6197C56.618 28.4991 56.2674 29.3403 55.6494 29.9621C55.0314 30.5839 54.1953 30.9367 53.3213 30.9443C52.4474 30.9519 51.6053 30.6139 50.9767 30.003L43.3333 22.3126V54.4624C43.3333 55.3519 42.9821 56.205 42.357 56.8339C41.7319 57.4629 40.8841 57.8162 40 57.8162C39.1159 57.8162 38.2681 57.4629 37.643 56.8339C37.0179 56.205 36.6667 55.3519 36.6667 54.4624V22.3126L29.0233 30.003C28.3947 30.6139 27.5527 30.9519 26.6787 30.9443C25.8047 30.9367 24.9686 30.5839 24.3506 29.9621C23.7326 29.3403 23.382 28.4991 23.3744 27.6197C23.3668 26.7404 23.7028 25.8932 24.31 25.2607L37.6433 11.8454Z" fill="#1DB0B9"/>
<path d="M20 57.8163C20 56.9269 19.6488 56.0738 19.0237 55.4448C18.3986 54.8159 17.5507 54.4625 16.6667 54.4625C15.7826 54.4625 14.9348 54.8159 14.3097 55.4448C13.6845 56.0738 13.3333 56.9269 13.3333 57.8163V59.8286C13.3333 66.1405 18.3933 71.2316 24.6667 71.2316H55.3333C61.6067 71.2316 66.6667 66.1405 66.6667 59.8286V57.8163C66.6667 56.9269 66.3155 56.0738 65.6904 55.4448C65.0652 54.8159 64.2174 54.4625 63.3333 54.4625C62.4493 54.4625 61.6014 54.8159 60.9763 55.4448C60.3512 56.0738 60 56.9269 60 57.8163V59.8286C60 62.4379 57.9267 64.524 55.3333 64.524H24.6667C22.0733 64.524 20 62.4379 20 59.8286V57.8163Z" fill="#1DB0B9"/>
</svg>
